<mxfile host="app.diagrams.net" modified="2023-08-07T05:45:25.882Z" agent="Mozilla/5.0 (iPad; CPU OS 16_3 like Mac OS X) AppleWebKit/605.1.15 (KHTML, like Gecko) CriOS/114.0.5735.124 Mobile/15E148 Safari/604.1" etag="7M9yMVV2kuhlfE551xVb" version="21.6.6" type="github">
  <diagram name="Page-1" id="bCXPeqPFDipOL6Z7TXgC">
    <mxGraphModel dx="495" dy="477" grid="1" gridSize="10" guides="1" tooltips="1" connect="1" arrows="1" fold="1" page="1" pageScale="1" pageWidth="850" pageHeight="1100" math="0" shadow="0">
      <root>
        <mxCell id="0" />
        <mxCell id="1" parent="0" />
        <mxCell id="CrPUzeiGqZknqHVh0Kd9-1" value="" style="ellipse;whiteSpace=wrap;html=1;aspect=fixed;" parent="1" vertex="1">
          <mxGeometry x="50" y="220" width="80" height="80" as="geometry" />
        </mxCell>
        <mxCell id="CrPUzeiGqZknqHVh0Kd9-2" value="" style="shape=step;perimeter=stepPerimeter;whiteSpace=wrap;html=1;fixedSize=1;" parent="1" vertex="1">
          <mxGeometry x="190" y="230" width="120" height="80" as="geometry" />
        </mxCell>
        <mxCell id="CrPUzeiGqZknqHVh0Kd9-3" value="" style="shape=document;whiteSpace=wrap;html=1;boundedLbl=1;" parent="1" vertex="1">
          <mxGeometry x="400" y="230" width="120" height="80" as="geometry" />
        </mxCell>
        <mxCell id="0f0oyEAaao3WXVhDzwq0-1" value="" style="shape=stencil(7VvJct02EPwaXVFYBtvZcf7DVZZjVRzLJTvb32cQFfiIHrIpHVK56KYFTXCA2XpmeJfeff/84dv9XfTffzw9/nr/58PHH5/v0k93MT58/Xz/9PBDf7pL7+/Su0+PT/e/PD3+/vXj8+/fPoyV46ffHv8YT/jrGRe8C2Ggov/7+S/Z9frvH35+Xv/l4etufXdJluXiSjhf3pxflxfn2/ny4npcljfX4vny7EpblofkgrD1fpU1ZFfT+Xpxqa/rmxN/vj65tkobgwt0fcrr+uRqYeu9X9cXl8j7R1fX90/BebJeTw/Wi2tEGcSF9f1TdULPv3dcH8jzq8sR3yeS5zeXKspbibp1F9N6ns0V8j5qLKBAKlLsFFBgh+gCueEQpn1sKtddISaggLzKHOq8xTNABSMornAAGKUCIpNBRQQZ8nzEGUA6AiqxGwU0Y8jMDd38wh7AZEhOMgIaMR0F1ISnFDigFwRkdkoyn7e7ac9OSY0lIiAT8xkA2EH9N1MNmea7AxQmtLi8Cq0eknl4BVQAyNTfY0DGm1YvQu+hOIEd2nTLxwA9E/Dahdt0xyAYhb5S9NNL70+JCK3/roL3kBggmchWXSeecoTO1ab1JStRDT0TiM3jJYlvHae+Brfh+YgMybsGbqbQ1CVF4/lUaBaekysZZYhENQYAblq1i8lgMoC0OZ4zGcAZi3pbYkAKiOsp5cBPKThZla/EeTNn95DWHermz49vWsPuetNN1ZsIrRaMaWF3lQEK3kPP1Leqesv6Sr25znYQdPe9z4M+A+SOgMzsQabm7ADU4tR7G0An7l6dAKRjwXsaUW7p6X4LJkRyOSOAXrUahNmhcICVOrGLSDMl3wE8cd8j64arbjQ7OQQkpn0KWMNorzM5OJWhIIBliZp19tVGe5hGeKZMsEPj1GTEwPUeqsygdObv62rURahRpy1+bJ5Mpqs6BmS8aRHqBVJzeQXoI5gnk4AyDFdFZNAXKMDguK+UMrPOXVQMRL1FGarhA4yzZj8p3guzRI0fcQWMVICohqijCyg0i1lSMVBr3O2MpxeMWUMd2Q6Gid644BkAPN/IJpjQusMqg+rShQwNUoE2k7Szm4b0PnEiN+4B1Fto+WCoBrxSoPw7R3RkauVMW7N6PjAgTrNyNpRdKJHLxZhom57qGFAxoFwUTRTQ4B4SjQ+5I0VR1chEhrKd+j5LJK+kGRukxpqksYCirlcanhILikWvCQwoU8ZRKgaUEbnJKRUTH4bXIIDq0R5G/YucUg3IOFSXWHKieS1WcyqluxoCu6kXsQJZLei9R25A7qE2Q3c9JaO1YxRVd8+qOW2jPBtApvM8BhibvtVGjgFi2KvQMlzLBzI0VhcsWKgchJoJXZAfa0ChlUf13uBbPS3DtYoWN6gdUT6lPGBAw3sTe+gBi2SDCzJAQpqlQVHIKfViDCjPYzgGNKyqqYlmohoKKB0BjIEP2tYQwDKBG23bA8hND9pWEMCi6KBtZgdGaW60be8ESBTd0bYdgpHLG23buT7PAdja4Ln0oG0G0IhBDNoGr5Svbg5LUpnrd8N2yNUODfsPQwbWT9h43ktPqWHH5eoe2kEYpTfdTMLElWnI8Dp1bbNM91KDaJidXJtceK1RYxi9cBvdMI4Lx9RN/hNpej8sruM9sNLgIaBzAL6S0ErIgdDC22WvBtQZx1/IB/qWRO5jFrs4U9hImfKy7k1PtM5E8zjutllZ2fGyyAAFS4O6g2eAjJU+jewsS2ymijDSe7aDzCRyl87QlCyZi4uzkncMsB25yrPEgGQ0dKremrh2kzuw6r2mxhjZC+X4mnxjnaLTm9b0PoPyBScMEHGHdMlpbFrJ+jRlK4zvZKATF80AtmT5jMhhU6TSFl4phr16mt4Xe6yJCx2x1zTmCpgMHnO4tM21HFP2NiPaDsCqm7mYWkuj95Azhl11ZCy9z2KEjlRbFdBNo5NRFAVAHXu0elglxDgBvTiW/uRgBjYqZa/SZ7FnK+n62TA4KyVCciLxqtAHHF8Cn4ExPXBVDeYqJRknUOgQiQJQ+SJNHewOt+bqmQw41yK89igm1wi0pS0Fe+ChUTqgF5csxye6pKoBZenAW026QzNVZlZrGTVgc0osb5UtJdwTatYONsWZVGg5VP8ta3IimXbZ1SChEqKOJxO/lDwSjlH6Y6MFFQ2o8lEbJWHAjzVdEd4Zxd5rmMWUMwDMF2meSbuQb93dbYu37u4LAP9zd1dwoEIBjB+Puge0g/kY75gzBRvttE4xRjcBEGgIGpOXZoqEsSZ1peBnSqAEYiQvawjS9IM5pmSoolzuABlWSjRhGgAz0Mtu+sYvdjHrwn1jszZNV3V2D1h2yNziqnmlwp1ANjXdSmvrtxbIvuzADQjbwYFP80QsO9xCxjEgmF5TpanAjdzuUgHWsgimDJe4DGN61LAm+kpiko1II3tIaECjM8rHdG1XkdEsBRzMV7PKd0A+MJI+Dngbl34blz4BgE2PQRg+zPxfj0sn1NboaQQKyfREEk2ND0y00CmsYKawNMTQHTzaQxJanOkYE1OlTqOhgabO64LY2pXASznYrVBaR4koEleJ1CVF7PaNLIOs9+YjGp5/eozPYxCJPh8y6DFsQrTa9B5vWc3ZeluGIufvZ3FkHxNI6unN4HmkRdlgjLLP8vrJephLCYU2ECJGTTVSVlCKhrcFPuGNpfo2qz8n6gmTztzvZiRgwudR8HIDbzZidsoZqp4ElPQD/zgq4ijKRSM9IpFK9CyDyRsTbXqM9RlO8+r56/tnOoo23h8/5rx4PnDZTGsKev4NlYdVLke2BRyNf4AUMKKWq+/xILZcri+4npVqg6GMhQ65vfZj2uv1+sPty91PD1++PH/4u/8/fumrf3r+Sji9/wc=);lineShape=1;fontSize=16;" vertex="1" parent="1">
          <mxGeometry x="397.5301638470245" y="401.6530612254219" width="142.8185658174766" height="85.01026780608508" as="geometry" />
        </mxCell>
      </root>
    </mxGraphModel>
  </diagram>
</mxfile>
